<svg id="Layer_1" data-name="Layer 1" xmlns="http://www.w3.org/2000/svg" xmlns:xlink="http://www.w3.org/1999/xlink" viewBox="0 0 295.38462 202.54945"><defs><style>.cls-1{fill:url(#linear-gradient);}.cls-2{fill:url(#radial-gradient);}.cls-3{fill:url(#linear-gradient-2);}.cls-4{fill:url(#radial-gradient-2);}.cls-5{fill:url(#radial-gradient-3);}.cls-6{fill:url(#radial-gradient-4);}.cls-7{fill:url(#linear-gradient-3);}</style><linearGradient id="linear-gradient" x1="48.56497" y1="134.30715" x2="247.43722" y2="61.92358" gradientTransform="translate(246.11695 -49.88678) rotate(90)" gradientUnits="userSpaceOnUse"><stop offset="0" stop-color="#6d6e71"/><stop offset="0.11093" stop-color="#85859d"/><stop offset="0.23449" stop-color="#9c9ac7"/><stop offset="0.34634" stop-color="#adaae6"/><stop offset="0.44139" stop-color="#b7b4f8"/><stop offset="0.50838" stop-color="#bbb7ff"/><stop offset="0.57729" stop-color="#b8b4fa"/><stop offset="0.66383" stop-color="#afacea"/><stop offset="0.75979" stop-color="#a19fd0"/><stop offset="0.8626" stop-color="#8e8dad"/><stop offset="0.96973" stop-color="#75757f"/><stop offset="1" stop-color="#6d6e71"/></linearGradient><radialGradient id="radial-gradient" cx="134.08689" cy="12.16507" r="65.39748" gradientTransform="translate(246.11695 -49.88678) rotate(90)" gradientUnits="userSpaceOnUse"><stop offset="0.24581" stop-color="#bbb7ff"/><stop offset="1" stop-color="#6d6e71"/></radialGradient><linearGradient id="linear-gradient-2" x1="90.33751" y1="85.67571" x2="157.1025" y2="18.91073" gradientTransform="translate(246.11695 -49.88678) rotate(90)" gradientUnits="userSpaceOnUse"><stop offset="0" stop-color="#bbb7ff"/><stop offset="0.61453" stop-color="#6d6e71"/></linearGradient><radialGradient id="radial-gradient-2" cx="120.12686" cy="40.0401" r="58.06749" xlink:href="#radial-gradient"/><radialGradient id="radial-gradient-3" cx="175.87686" cy="156.1951" r="58.065" xlink:href="#radial-gradient"/><radialGradient id="radial-gradient-4" cx="161.91687" cy="184.0701" r="65.39528" xlink:href="#radial-gradient"/><linearGradient id="linear-gradient-3" x1="151.15434" y1="122.81758" x2="193.41311" y2="165.07635" gradientTransform="translate(246.11695 -49.88678) rotate(90)" gradientUnits="userSpaceOnUse"><stop offset="0" stop-color="#bbb7ff"/><stop offset="1" stop-color="#6d6e71"/></linearGradient></defs><path class="cls-1" d="M233.92685,156.1951a57.975,57.975,0,0,1-58.03-56.44c-.03-.55-.05-1.09-.05-1.64,0-.5-.01-1.01-.02-1.51a85.5044,85.5044,0,0,0-19.06-52.48c-.51-.64-1.04-1.27-1.57-1.88a84.5008,84.5008,0,0,0-7.2-7.46,85.91787,85.91787,0,0,0-143.98,61.82,58.05886,58.05886,0,0,1,116.08-.13c.03.54.05,1.09.05,1.64,0,.5.01,1.01.02,1.51a85.504,85.504,0,0,0,19.06,52.48c.51.64,1.04,1.27,1.57,1.88a85.91987,85.91987,0,0,0,151.19-54.36A58.07319,58.07319,0,0,1,233.92685,156.1951Z"/><path class="cls-2" d="M291.98685,96.60508a85.90755,85.90755,0,0,0-84.4-84.4,58.06389,58.06389,0,0,1,.13,116.09c-.54.03-1.09.05-1.63995.05-.55,0-1.1-.02-1.64-.05a30.2171,30.2171,0,0,1-28.54-28.54,57.45727,57.45727,0,0,0,5.46,23.07,58.08512,58.08512,0,0,0,110.63-23.2c.01-.5.02-1.01.02-1.51S291.99686,97.10508,291.98685,96.60508Z"/><path class="cls-3" d="M206.07688,67.88511a30.23072,30.23072,0,0,1,30.23,30.23,58.12231,58.12231,0,0,0-79.54-53.99,85.5044,85.5044,0,0,1,19.06,52.48c.00994.5.02,1.01.02,1.51A30.23714,30.23714,0,0,1,206.07688,67.88511Z"/><path class="cls-4" d="M155.19687,42.24509c.53.61,1.06,1.24,1.57,1.88a58.08833,58.08833,0,0,1,79.54,53.99c0,.55-.02,1.1-.05,1.64a30.21721,30.21721,0,0,1-28.54,28.54,58.06577,58.06577,0,0,0-.13-116.09c-.5-.01-1.00994-.02-1.50994-.02s-1.01.01-1.51.02a85.56388,85.56388,0,0,0-56.57,22.58A84.5008,84.5008,0,0,1,155.19687,42.24509Z"/><path class="cls-5" d="M140.79685,153.98508c-.53-.61-1.06-1.24-1.57-1.88a58.08833,58.08833,0,0,1-79.54-53.99c0-.55.02-1.09.05-1.64a30.22492,30.22492,0,0,1,28.54-28.54,58.06608,58.06608,0,0,0,.13,116.09c.5.01,1.01.02,1.51.02s1.01-.01,1.51-.02a85.56423,85.56423,0,0,0,56.57-22.58A85.954,85.954,0,0,1,140.79685,153.98508Z"/><path class="cls-6" d="M37.35684,150.68509a58.02136,58.02136,0,0,1,50.92-82.75c.54-.03,1.09-.05,1.64-.05s1.1.02,1.64.05a30.21718,30.21718,0,0,1,28.54,28.54,58.06086,58.06086,0,0,0-116.07995.13c-.01.5-.02,1.01-.02,1.51s.01,1.01.02,1.51a85.90562,85.90562,0,0,0,84.39,84.4A58.07088,58.07088,0,0,1,37.35684,150.68509Z"/><path class="cls-7" d="M89.91684,128.34507a30.23069,30.23069,0,0,1-30.23-30.23,58.12233,58.12233,0,0,0,79.54,53.99,85.504,85.504,0,0,1-19.06-52.48c-.01-.5-.02-1.01-.02-1.51A30.22433,30.22433,0,0,1,89.91684,128.34507Z"/></svg>